<svg xmlns="http://www.w3.org/2000/svg" xmlns:xlink="http://www.w3.org/1999/xlink" width="500" zoomAndPan="magnify" viewBox="0 0 375 374.999991" height="500" preserveAspectRatio="xMidYMid meet" version="1.0"><defs><g/><clipPath id="0316031ee7"><path d="M 158 165 L 259.5 165 L 259.5 227 L 158 227 Z M 158 165 " clip-rule="nonzero"/></clipPath><clipPath id="d56cbb71c7"><path d="M 115.5 83.761719 L 249 83.761719 L 249 233.761719 L 115.5 233.761719 Z M 115.5 83.761719 " clip-rule="nonzero"/></clipPath></defs><g clip-path="url(#0316031ee7)"><path fill="#00c2cb" d="M 232.078125 201.554688 C 236.582031 193.679688 239.152344 184.5625 239.152344 174.84375 C 239.152344 171.632812 238.871094 168.484375 238.332031 165.429688 C 236.152344 177.554688 229.707031 188.199219 220.601562 195.746094 C 215.332031 200.117188 207.492188 199.230469 203.367188 193.765625 L 195.675781 183.570312 C 194.394531 181.875 192.394531 180.878906 190.269531 180.878906 L 160.953125 180.878906 C 160.945312 180.878906 160.9375 180.878906 160.933594 180.878906 C 158.929688 180.894531 157.636719 183.003906 158.535156 184.796875 L 159.703125 187.121094 C 161.871094 191.441406 166.140625 194.3125 170.960938 194.691406 L 172.699219 194.828125 L 180.300781 195.429688 C 182.453125 195.597656 184.394531 196.789062 185.519531 198.628906 L 188.96875 204.269531 L 190.898438 207.425781 L 201.714844 225.117188 C 201.90625 225.433594 202.148438 225.707031 202.421875 225.9375 C 203.214844 226.601562 204.289062 226.878906 205.328125 226.621094 C 205.335938 226.617188 205.34375 226.617188 205.351562 226.613281 C 233.40625 219.691406 255.015625 196.421875 259.503906 167.488281 C 255.566406 182.332031 245.449219 194.660156 232.078125 201.554688 " fill-opacity="1" fill-rule="nonzero"/></g><g clip-path="url(#d56cbb71c7)"><path fill="#003479" d="M 183.449219 199.894531 C 182.730469 198.71875 181.484375 197.953125 180.109375 197.84375 L 170.769531 197.109375 C 165.140625 196.667969 160.070312 193.257812 157.535156 188.207031 L 156.429688 186.007812 C 155.644531 184.441406 155.625 182.570312 156.492188 181.050781 C 157.386719 179.480469 159 178.511719 160.789062 178.457031 L 160.953125 178.453125 L 170.339844 178.453125 C 167.277344 173.625 161.761719 170.90625 156.054688 171.441406 L 146.300781 172.351562 C 142.125 172.742188 138.371094 169.863281 137.601562 165.738281 C 137.03125 162.679688 136.730469 159.527344 136.730469 156.304688 C 136.730469 139.960938 144.386719 125.410156 156.300781 116.03125 C 144.496094 123.808594 135.308594 135.234375 130.351562 148.703125 C 134.816406 116.25 162.65625 91.253906 196.335938 91.253906 C 217.1875 91.253906 235.796875 100.832031 248.011719 115.828125 C 235.027344 96.605469 213.0625 83.945312 188.136719 83.878906 C 148.234375 83.777344 115.578125 116.289062 115.519531 156.195312 C 115.5 170.242188 119.480469 183.355469 126.382812 194.464844 C 126.53125 194.699219 126.671875 194.933594 126.820312 195.167969 L 136.488281 193.527344 C 140.808594 192.796875 144.363281 196.972656 142.894531 201.097656 C 142.851562 201.210938 142.828125 201.273438 142.828125 201.273438 C 149.050781 203.539062 148 209.601562 148 209.601562 C 153.496094 212.105469 151.234375 217.28125 151.234375 217.28125 C 153.175781 218.082031 153.859375 219.65625 154.035156 220.167969 C 154.125 220.429688 154.222656 220.6875 154.324219 220.949219 L 158.082031 230.59375 C 158.730469 232.253906 160.714844 233.609375 162.496094 233.609375 C 164.742188 233.609375 166.296875 231.363281 165.503906 229.261719 L 163.746094 224.578125 L 161.398438 218.332031 C 161.234375 217.898438 161.535156 217.417969 162.007812 217.382812 C 162.320312 217.359375 162.601562 217.5625 162.722656 217.851562 L 165.804688 225.277344 L 168.089844 230.769531 C 168.875 232.664062 170.949219 233.75 172.914062 233.175781 C 175.273438 232.484375 176.445312 229.847656 175.378906 227.636719 C 175.378906 227.636719 175.378906 227.632812 175.378906 227.632812 L 169.730469 215.96875 C 169.488281 215.46875 169.820312 214.878906 170.375 214.824219 C 170.695312 214.792969 171 214.960938 171.152344 215.242188 L 178.023438 228.046875 L 178.875 229.636719 C 179.714844 231.199219 181.554688 232.015625 183.242188 231.457031 C 184.554688 231.023438 185.429688 229.925781 185.660156 228.6875 C 185.800781 227.929688 185.703125 227.121094 185.320312 226.375 L 179.941406 215.953125 C 179.707031 215.496094 179.878906 214.90625 180.355469 214.710938 C 180.777344 214.535156 181.25 214.714844 181.457031 215.105469 L 187.535156 226.585938 C 188.027344 227.511719 188.757812 228.230469 189.613281 228.707031 C 191.039062 229.496094 192.804688 229.609375 194.382812 228.863281 C 194.683594 228.722656 194.964844 228.550781 195.222656 228.359375 C 197.378906 226.796875 198.054688 223.785156 196.609375 221.417969 L 183.449219 199.894531 " fill-opacity="1" fill-rule="nonzero"/></g><path fill="#00c2cb" d="M 130.914062 204.25 L 138.519531 202.988281 C 140.800781 202.609375 142.34375 200.453125 141.964844 198.167969 C 141.585938 195.886719 139.429688 194.34375 137.148438 194.722656 L 129.542969 195.984375 C 127.261719 196.363281 125.71875 198.519531 126.097656 200.800781 C 126.476562 203.082031 128.632812 204.625 130.914062 204.25 " fill-opacity="1" fill-rule="nonzero"/><path fill="#00c2cb" d="M 145.84375 206.414062 C 145.464844 204.132812 143.308594 202.589844 141.027344 202.96875 L 130.648438 204.953125 C 128.367188 205.332031 126.824219 207.488281 127.203125 209.769531 C 127.578125 212.050781 129.738281 213.59375 132.019531 213.214844 L 142.398438 211.230469 C 144.679688 210.851562 146.222656 208.695312 145.84375 206.414062 " fill-opacity="1" fill-rule="nonzero"/><path fill="#00c2cb" d="M 149.347656 215.035156 C 148.96875 212.753906 146.8125 211.210938 144.53125 211.589844 L 136.925781 212.851562 C 134.644531 213.230469 133.101562 215.386719 133.480469 217.667969 C 133.859375 219.949219 136.015625 221.492188 138.296875 221.113281 L 145.898438 219.851562 C 148.183594 219.472656 149.726562 217.316406 149.347656 215.035156 " fill-opacity="1" fill-rule="nonzero"/><path fill="#00c2cb" d="M 149.808594 219.671875 L 143.566406 220.667969 C 141.285156 221.042969 139.742188 223.203125 140.121094 225.484375 C 140.496094 227.765625 142.65625 229.308594 144.9375 228.929688 L 151.179688 227.9375 C 153.464844 227.558594 155.007812 225.398438 154.628906 223.117188 C 154.25 220.835938 152.09375 219.292969 149.808594 219.671875 " fill-opacity="1" fill-rule="nonzero"/><g fill="#003479" fill-opacity="1"><g transform="translate(125.691704, 273.975303)"><g><path d="M 19.671875 -0.75 L 12.921875 -11.203125 L 19.140625 -20.828125 C 19.421875 -21.265625 19.265625 -21.59375 18.8125 -21.59375 L 15.265625 -21.59375 C 15.015625 -21.59375 14.6875 -21.390625 14.484375 -21.0625 L 10.234375 -14.234375 L 5.984375 -21.0625 C 5.8125 -21.375 5.46875 -21.59375 5.21875 -21.59375 L 1.6875 -21.59375 C 1.21875 -21.59375 1.046875 -21.25 1.34375 -20.8125 L 7.75 -11.1875 L 0.8125 -0.75 C 0.515625 -0.3125 0.703125 0.015625 1.1875 0.015625 L 4.6875 0.015625 C 4.9375 0.015625 5.25 -0.171875 5.46875 -0.515625 L 10.234375 -8.125 L 15.03125 -0.5 C 15.234375 -0.15625 15.53125 0.015625 15.8125 0.015625 L 19.28125 0.015625 C 19.796875 0.015625 19.984375 -0.3125 19.671875 -0.75 Z M 19.671875 -0.75 "/></g></g></g><g fill="#003479" fill-opacity="1"><g transform="translate(149.085185, 273.975303)"><g><path d="M 20.890625 -0.703125 L 11.671875 -21.28125 C 11.515625 -21.625 11.234375 -21.84375 10.890625 -21.84375 L 10.703125 -21.84375 C 10.390625 -21.84375 10.078125 -21.640625 9.921875 -21.296875 L 0.734375 -0.703125 C 0.546875 -0.265625 0.75 0.015625 1.21875 0.015625 L 4.265625 0.015625 C 4.609375 0.015625 4.875 -0.234375 5 -0.546875 L 5.859375 -2.625 L 15.78125 -2.625 L 16.640625 -0.53125 C 16.765625 -0.21875 17.03125 0.03125 17.359375 0.03125 L 20.421875 0.03125 C 20.890625 0.03125 21.0625 -0.28125 20.890625 -0.703125 Z M 7.265625 -6.0625 L 10.8125 -14.65625 L 14.359375 -6.0625 Z M 7.265625 -6.0625 "/></g></g></g><g fill="#003479" fill-opacity="1"><g transform="translate(173.61439, 273.975303)"><g><path d="M 16.328125 -3.515625 L 6.59375 -3.515625 L 6.59375 -21.109375 C 6.59375 -21.421875 6.40625 -21.59375 6.125 -21.59375 L 3.046875 -21.59375 C 2.75 -21.59375 2.5625 -21.421875 2.5625 -21.109375 L 2.5625 -0.484375 C 2.5625 -0.171875 2.75 0 3.046875 0 L 16.328125 0 C 16.625 0 16.796875 -0.171875 16.796875 -0.484375 L 16.796875 -3.03125 C 16.796875 -3.34375 16.625 -3.515625 16.328125 -3.515625 Z M 16.328125 -3.515625 "/></g></g></g><g fill="#003479" fill-opacity="1"><g transform="translate(193.870428, 273.975303)"><g><path d="M 6.578125 -21.109375 C 6.578125 -21.421875 6.40625 -21.59375 6.09375 -21.59375 L 3.03125 -21.59375 C 2.734375 -21.59375 2.5625 -21.421875 2.5625 -21.109375 L 2.5625 -0.453125 C 2.5625 -0.15625 2.734375 0.015625 3.03125 0.015625 L 6.09375 0.015625 C 6.40625 0.015625 6.578125 -0.15625 6.578125 -0.453125 Z M 6.578125 -21.109375 "/></g></g></g><g fill="#003479" fill-opacity="1"><g transform="translate(205.920862, 273.975303)"><g><path d="M 9.734375 0.34375 C 14.28125 0.34375 17.484375 -2.203125 17.484375 -6.21875 C 17.484375 -10.03125 14.28125 -11.359375 10.8125 -12.484375 C 8.296875 -13.328125 6.265625 -14.15625 6.265625 -15.78125 C 6.265625 -17.125 7.453125 -18.078125 9.515625 -18.078125 C 10.765625 -18.078125 12.1875 -17.546875 13.140625 -16.640625 C 13.609375 -16.34375 13.984375 -16.234375 14.390625 -16.703125 L 15.875 -18.40625 C 16.140625 -18.734375 16.125 -19.125 15.828125 -19.453125 C 14.578125 -20.921875 12.140625 -21.890625 9.703125 -21.890625 C 5.1875 -21.890625 2.328125 -19.46875 2.328125 -15.8125 C 2.328125 -12.328125 4.71875 -10.765625 8.78125 -9.421875 C 11.703125 -8.4375 13.328125 -7.703125 13.328125 -6.15625 C 13.328125 -4.5 12.015625 -3.5 9.578125 -3.5 C 7.78125 -3.5 5.765625 -4.546875 4.5 -5.90625 C 4.15625 -6.21875 3.8125 -6.28125 3.546875 -6.03125 L 1.703125 -4.1875 C 1.390625 -3.890625 1.359375 -3.53125 1.578125 -3.265625 C 3.140625 -1.140625 6.46875 0.34375 9.734375 0.34375 Z M 9.734375 0.34375 "/></g></g></g><g fill="#003479" fill-opacity="1"><g transform="translate(227.667537, 273.975303)"><g><path d="M 20.890625 -0.703125 L 11.671875 -21.28125 C 11.515625 -21.625 11.234375 -21.84375 10.890625 -21.84375 L 10.703125 -21.84375 C 10.390625 -21.84375 10.078125 -21.640625 9.921875 -21.296875 L 0.734375 -0.703125 C 0.546875 -0.265625 0.75 0.015625 1.21875 0.015625 L 4.265625 0.015625 C 4.609375 0.015625 4.875 -0.234375 5 -0.546875 L 5.859375 -2.625 L 15.78125 -2.625 L 16.640625 -0.53125 C 16.765625 -0.21875 17.03125 0.03125 17.359375 0.03125 L 20.421875 0.03125 C 20.890625 0.03125 21.0625 -0.28125 20.890625 -0.703125 Z M 7.265625 -6.0625 L 10.8125 -14.65625 L 14.359375 -6.0625 Z M 7.265625 -6.0625 "/></g></g></g><g fill="#545454" fill-opacity="1"><g transform="translate(88.051538, 289.439097)"><g><path d="M 2.78125 0.09375 C 4.078125 0.09375 5 -0.625 5 -1.78125 C 5 -2.875 4.078125 -3.25 3.09375 -3.5625 C 2.375 -3.8125 1.796875 -4.046875 1.796875 -4.515625 C 1.796875 -4.890625 2.125 -5.171875 2.71875 -5.171875 C 3.078125 -5.171875 3.484375 -5.015625 3.765625 -4.75 C 3.890625 -4.671875 4 -4.640625 4.109375 -4.765625 L 4.53125 -5.265625 C 4.609375 -5.359375 4.609375 -5.46875 4.53125 -5.5625 C 4.171875 -5.984375 3.46875 -6.265625 2.765625 -6.265625 C 1.484375 -6.265625 0.671875 -5.5625 0.671875 -4.515625 C 0.671875 -3.515625 1.34375 -3.078125 2.515625 -2.6875 C 3.34375 -2.40625 3.8125 -2.203125 3.8125 -1.765625 C 3.8125 -1.28125 3.4375 -1 2.734375 -1 C 2.21875 -1 1.640625 -1.296875 1.28125 -1.6875 C 1.1875 -1.78125 1.09375 -1.796875 1.015625 -1.71875 L 0.484375 -1.203125 C 0.390625 -1.109375 0.390625 -1.015625 0.453125 -0.9375 C 0.890625 -0.328125 1.84375 0.09375 2.78125 0.09375 Z M 2.78125 0.09375 "/></g></g></g><g fill="#545454" fill-opacity="1"><g transform="translate(100.081373, 289.439097)"><g><path d="M 5.203125 -1.09375 L 1.890625 -1.09375 L 1.890625 -2.328125 L 4.453125 -2.328125 C 4.59375 -2.328125 4.671875 -2.40625 4.671875 -2.515625 L 4.671875 -3.1875 C 4.671875 -3.3125 4.59375 -3.375 4.453125 -3.375 L 1.890625 -3.375 L 1.890625 -5.078125 L 5.171875 -5.078125 C 5.296875 -5.078125 5.359375 -5.140625 5.359375 -5.265625 L 5.359375 -5.984375 C 5.359375 -6.09375 5.296875 -6.171875 5.171875 -6.171875 L 0.921875 -6.171875 C 0.796875 -6.171875 0.734375 -6.109375 0.734375 -5.984375 L 0.734375 -0.171875 C 0.734375 -0.0625 0.796875 0 0.921875 0 L 5.265625 0 C 5.375 0 5.453125 -0.0625 5.453125 -0.171875 L 5.453125 -0.859375 C 5.453125 -1 5.34375 -1.09375 5.203125 -1.09375 Z M 5.203125 -1.09375 "/></g></g></g><g fill="#545454" fill-opacity="1"><g transform="translate(112.585846, 289.439097)"><g><path d="M 4.8125 -1.484375 C 4.46875 -1.203125 4 -1.046875 3.59375 -1.046875 C 2.4375 -1.046875 1.515625 -1.9375 1.515625 -3.078125 C 1.515625 -4.21875 2.4375 -5.125 3.59375 -5.125 C 4.015625 -5.125 4.484375 -4.96875 4.828125 -4.671875 C 4.921875 -4.59375 5.046875 -4.609375 5.078125 -4.6875 L 5.546875 -5.375 C 5.59375 -5.4375 5.59375 -5.53125 5.484375 -5.609375 C 4.984375 -6.015625 4.21875 -6.265625 3.59375 -6.265625 C 1.796875 -6.265625 0.359375 -4.859375 0.359375 -3.078125 C 0.359375 -1.296875 1.796875 0.09375 3.59375 0.09375 C 4.234375 0.09375 4.96875 -0.15625 5.46875 -0.53125 C 5.546875 -0.59375 5.59375 -0.703125 5.546875 -0.765625 L 5.078125 -1.46875 C 5.03125 -1.546875 4.90625 -1.546875 4.8125 -1.484375 Z M 4.8125 -1.484375 "/></g></g></g><g fill="#545454" fill-opacity="1"><g transform="translate(125.207965, 289.439097)"><g><path d="M 1.765625 -6.03125 C 1.765625 -6.125 1.71875 -6.171875 1.640625 -6.171875 L 0.765625 -6.171875 C 0.671875 -6.171875 0.625 -6.125 0.625 -6.03125 L 0.625 -2.53125 C 0.625 -0.984375 1.6875 0.09375 3.21875 0.09375 C 4.75 0.09375 5.828125 -0.96875 5.828125 -2.515625 L 5.828125 -6.03125 C 5.828125 -6.125 5.765625 -6.171875 5.671875 -6.171875 L 4.828125 -6.171875 C 4.734375 -6.171875 4.671875 -6.125 4.671875 -6.03125 L 4.671875 -2.53125 C 4.671875 -1.65625 4.0625 -1.015625 3.21875 -1.015625 C 2.375 -1.015625 1.765625 -1.65625 1.765625 -2.53125 Z M 1.765625 -6.03125 "/></g></g></g><g fill="#545454" fill-opacity="1"><g transform="translate(138.300663, 289.439097)"><g><path d="M 4.609375 -1.828125 C 5.25 -2.234375 5.65625 -2.9375 5.65625 -3.78125 C 5.65625 -5.15625 4.609375 -6.171875 3.15625 -6.171875 L 1.71875 -6.171875 C 1.625 -6.171875 1.359375 -6.171875 1.125 -6.171875 L 0.921875 -6.171875 C 0.8125 -6.171875 0.734375 -6.09375 0.734375 -5.984375 L 0.734375 -0.171875 C 0.734375 -0.0625 0.8125 0 0.921875 0 L 1.703125 0 C 1.8125 0 1.890625 -0.0625 1.890625 -0.171875 L 1.890625 -1.421875 L 3.15625 -1.421875 C 3.296875 -1.421875 3.4375 -1.4375 3.578125 -1.453125 L 4.21875 -0.140625 C 4.265625 -0.0625 4.34375 0 4.421875 0 L 5.3125 0 C 5.453125 0 5.5 -0.09375 5.4375 -0.203125 Z M 3.078125 -2.375 L 1.890625 -2.375 L 1.890625 -5.15625 L 3.078125 -5.15625 C 3.890625 -5.15625 4.5 -4.578125 4.5 -3.78125 C 4.5 -2.953125 3.90625 -2.375 3.078125 -2.375 Z M 3.078125 -2.375 "/></g></g></g><g fill="#545454" fill-opacity="1"><g transform="translate(151.101275, 289.439097)"><g><path d="M 1.875 -6.03125 C 1.875 -6.125 1.828125 -6.171875 1.734375 -6.171875 L 0.875 -6.171875 C 0.78125 -6.171875 0.734375 -6.125 0.734375 -6.03125 L 0.734375 -0.125 C 0.734375 -0.046875 0.78125 0 0.875 0 L 1.734375 0 C 1.828125 0 1.875 -0.046875 1.875 -0.125 Z M 1.875 -6.03125 "/></g></g></g><g fill="#545454" fill-opacity="1"><g transform="translate(160.360361, 289.439097)"><g><path d="M 0.234375 -5.34375 C 0.234375 -5.234375 0.3125 -5.15625 0.421875 -5.15625 L 1.953125 -5.15625 L 1.953125 -0.171875 C 1.953125 -0.0625 2.015625 0 2.125 0 L 2.921875 0 C 3.03125 0 3.09375 -0.0625 3.09375 -0.171875 L 3.09375 -5.15625 L 4.640625 -5.15625 C 4.75 -5.15625 4.8125 -5.234375 4.8125 -5.34375 L 4.8125 -5.984375 C 4.8125 -6.09375 4.75 -6.171875 4.640625 -6.171875 L 0.421875 -6.171875 C 0.296875 -6.171875 0.234375 -6.09375 0.234375 -5.984375 Z M 0.234375 -5.34375 "/></g></g></g><g fill="#545454" fill-opacity="1"><g transform="translate(172.061599, 289.439097)"><g><path d="M 5.1875 -6.171875 L 4.265625 -6.171875 C 4.171875 -6.171875 4.09375 -6.109375 4.03125 -6.015625 L 2.71875 -3.609375 L 1.390625 -6.015625 C 1.328125 -6.109375 1.25 -6.171875 1.171875 -6.171875 L 0.25 -6.171875 C 0.125 -6.171875 0.0625 -6.09375 0.125 -5.953125 L 2.140625 -2.453125 L 2.140625 -0.171875 C 2.140625 -0.0625 2.203125 0 2.328125 0 L 3.109375 0 C 3.21875 0 3.28125 -0.0625 3.28125 -0.171875 L 3.28125 -2.4375 L 5.3125 -5.953125 C 5.359375 -6.09375 5.3125 -6.171875 5.1875 -6.171875 Z M 5.1875 -6.171875 "/></g></g></g><g fill="#545454" fill-opacity="1"><g transform="translate(184.132005, 289.439097)"><g><path d="M 1.25 -0.125 L 3.765625 -6.03125 C 3.796875 -6.125 3.765625 -6.171875 3.671875 -6.171875 L 2.828125 -6.171875 C 2.75 -6.171875 2.671875 -6.140625 2.640625 -6.046875 L 0.125 -0.140625 C 0.078125 -0.0625 0.109375 0 0.203125 0 L 1.0625 0 C 1.140625 0 1.21875 -0.046875 1.25 -0.125 Z M 1.25 -0.125 "/></g></g></g><g fill="#545454" fill-opacity="1"><g transform="translate(194.660853, 289.439097)"><g><path d="M 4.8125 -1.484375 C 4.46875 -1.203125 4 -1.046875 3.59375 -1.046875 C 2.4375 -1.046875 1.515625 -1.9375 1.515625 -3.078125 C 1.515625 -4.21875 2.4375 -5.125 3.59375 -5.125 C 4.015625 -5.125 4.484375 -4.96875 4.828125 -4.671875 C 4.921875 -4.59375 5.046875 -4.609375 5.078125 -4.6875 L 5.546875 -5.375 C 5.59375 -5.4375 5.59375 -5.53125 5.484375 -5.609375 C 4.984375 -6.015625 4.21875 -6.265625 3.59375 -6.265625 C 1.796875 -6.265625 0.359375 -4.859375 0.359375 -3.078125 C 0.359375 -1.296875 1.796875 0.09375 3.59375 0.09375 C 4.234375 0.09375 4.96875 -0.15625 5.46875 -0.53125 C 5.546875 -0.59375 5.59375 -0.703125 5.546875 -0.765625 L 5.078125 -1.46875 C 5.03125 -1.546875 4.90625 -1.546875 4.8125 -1.484375 Z M 4.8125 -1.484375 "/></g></g></g><g fill="#545454" fill-opacity="1"><g transform="translate(207.282975, 289.439097)"><g><path d="M 4.671875 -1 L 1.890625 -1 L 1.890625 -6.03125 C 1.890625 -6.125 1.828125 -6.171875 1.75 -6.171875 L 0.875 -6.171875 C 0.78125 -6.171875 0.734375 -6.125 0.734375 -6.03125 L 0.734375 -0.140625 C 0.734375 -0.046875 0.78125 0 0.875 0 L 4.671875 0 C 4.75 0 4.796875 -0.046875 4.796875 -0.140625 L 4.796875 -0.875 C 4.796875 -0.953125 4.75 -1 4.671875 -1 Z M 4.671875 -1 "/></g></g></g><g fill="#545454" fill-opacity="1"><g transform="translate(218.886857, 289.439097)"><g><path d="M 5.203125 -1.09375 L 1.890625 -1.09375 L 1.890625 -2.328125 L 4.453125 -2.328125 C 4.59375 -2.328125 4.671875 -2.40625 4.671875 -2.515625 L 4.671875 -3.1875 C 4.671875 -3.3125 4.59375 -3.375 4.453125 -3.375 L 1.890625 -3.375 L 1.890625 -5.078125 L 5.171875 -5.078125 C 5.296875 -5.078125 5.359375 -5.140625 5.359375 -5.265625 L 5.359375 -5.984375 C 5.359375 -6.09375 5.296875 -6.171875 5.171875 -6.171875 L 0.921875 -6.171875 C 0.796875 -6.171875 0.734375 -6.109375 0.734375 -5.984375 L 0.734375 -0.171875 C 0.734375 -0.0625 0.796875 0 0.921875 0 L 5.265625 0 C 5.375 0 5.453125 -0.0625 5.453125 -0.171875 L 5.453125 -0.859375 C 5.453125 -1 5.34375 -1.09375 5.203125 -1.09375 Z M 5.203125 -1.09375 "/></g></g></g><g fill="#545454" fill-opacity="1"><g transform="translate(231.391334, 289.439097)"><g><path d="M 5.96875 -0.203125 L 3.34375 -6.078125 C 3.296875 -6.1875 3.203125 -6.25 3.109375 -6.25 L 3.0625 -6.25 C 2.96875 -6.25 2.875 -6.1875 2.84375 -6.09375 L 0.21875 -0.203125 C 0.15625 -0.078125 0.21875 0 0.34375 0 L 1.21875 0 C 1.3125 0 1.390625 -0.0625 1.421875 -0.15625 L 1.671875 -0.75 L 4.515625 -0.75 L 4.75 -0.15625 C 4.796875 -0.0625 4.875 0.015625 4.96875 0.015625 L 5.84375 0.015625 C 5.96875 0.015625 6.015625 -0.078125 5.96875 -0.203125 Z M 2.078125 -1.734375 L 3.09375 -4.1875 L 4.109375 -1.734375 Z M 2.078125 -1.734375 "/></g></g></g><g fill="#545454" fill-opacity="1"><g transform="translate(244.216293, 289.439097)"><g><path d="M 6.09375 -6.171875 L 5.21875 -6.171875 C 5.125 -6.171875 5.078125 -6.125 5.078125 -6.046875 L 5.078125 -2.359375 L 1.125 -6.09375 C 1.046875 -6.171875 0.984375 -6.25 0.90625 -6.25 L 0.890625 -6.25 C 0.796875 -6.25 0.734375 -6.171875 0.734375 -6.0625 L 0.734375 -0.125 C 0.734375 -0.046875 0.78125 0 0.875 0 L 1.75 0 C 1.828125 0 1.890625 -0.046875 1.890625 -0.125 L 1.890625 -3.796875 L 5.8125 -0.0625 C 5.890625 0.015625 5.953125 0.078125 6.0625 0.078125 C 6.15625 0.078125 6.21875 0.015625 6.21875 -0.109375 L 6.21875 -6.046875 C 6.21875 -6.125 6.171875 -6.171875 6.09375 -6.171875 Z M 6.09375 -6.171875 "/></g></g></g><g fill="#545454" fill-opacity="1"><g transform="translate(257.820144, 289.439097)"><g><path d="M 1.875 -6.03125 C 1.875 -6.125 1.828125 -6.171875 1.734375 -6.171875 L 0.875 -6.171875 C 0.78125 -6.171875 0.734375 -6.125 0.734375 -6.03125 L 0.734375 -0.125 C 0.734375 -0.046875 0.78125 0 0.875 0 L 1.734375 0 C 1.828125 0 1.875 -0.046875 1.875 -0.125 Z M 1.875 -6.03125 "/></g></g></g><g fill="#545454" fill-opacity="1"><g transform="translate(267.079224, 289.439097)"><g><path d="M 6.09375 -6.171875 L 5.21875 -6.171875 C 5.125 -6.171875 5.078125 -6.125 5.078125 -6.046875 L 5.078125 -2.359375 L 1.125 -6.09375 C 1.046875 -6.171875 0.984375 -6.25 0.90625 -6.25 L 0.890625 -6.25 C 0.796875 -6.25 0.734375 -6.171875 0.734375 -6.0625 L 0.734375 -0.125 C 0.734375 -0.046875 0.78125 0 0.875 0 L 1.75 0 C 1.828125 0 1.890625 -0.046875 1.890625 -0.125 L 1.890625 -3.796875 L 5.8125 -0.0625 C 5.890625 0.015625 5.953125 0.078125 6.0625 0.078125 C 6.15625 0.078125 6.21875 0.015625 6.21875 -0.109375 L 6.21875 -6.046875 C 6.21875 -6.125 6.171875 -6.171875 6.09375 -6.171875 Z M 6.09375 -6.171875 "/></g></g></g><g fill="#545454" fill-opacity="1"><g transform="translate(280.683075, 289.439097)"><g><path d="M 5.578125 -3.140625 L 3.5625 -3.140625 C 3.484375 -3.140625 3.4375 -3.078125 3.4375 -3 L 3.4375 -2.3125 C 3.4375 -2.21875 3.484375 -2.171875 3.5625 -2.171875 L 4.625 -2.171875 L 4.625 -1.296875 C 4.375 -1.125 3.90625 -1 3.59375 -1 C 2.375 -1 1.515625 -1.921875 1.515625 -3.078125 C 1.515625 -4.21875 2.4375 -5.125 3.59375 -5.125 C 3.984375 -5.125 4.46875 -5 4.828125 -4.6875 C 4.921875 -4.609375 5.015625 -4.625 5.078125 -4.703125 L 5.53125 -5.375 C 5.578125 -5.453125 5.5625 -5.5625 5.484375 -5.625 C 4.984375 -6.046875 4.21875 -6.265625 3.59375 -6.265625 C 1.78125 -6.265625 0.359375 -4.875 0.359375 -3.078125 C 0.359375 -1.28125 1.796875 0.09375 3.59375 0.09375 C 4.296875 0.09375 5.140625 -0.15625 5.609375 -0.484375 C 5.671875 -0.53125 5.703125 -0.609375 5.703125 -0.6875 L 5.703125 -3 C 5.703125 -3.078125 5.65625 -3.140625 5.578125 -3.140625 Z M 5.578125 -3.140625 "/></g></g></g></svg>